<svg fill="none" height="61" viewBox="0 0 88 61" width="88" xmlns="http://www.w3.org/2000/svg" xmlns:xlink="http://www.w3.org/1999/xlink"><clipPath id="a"><path d="m0 0h88v61h-88z"/></clipPath><g clip-path="url(#a)"><g fill="#f0964d"><path d="m58.85 60.9997h-29.7c-3.3 0-6.05-2.7232-6.05-5.991v-18.5179c0-1.6339 1.1-2.7232 2.75-2.7232s2.75 1.0893 2.75 2.7232v17.9732c0 .5447.55.5447.55.5447h29.7c.55 0 .55-.5447.55-.5447v-17.9732c0-1.6339 1.1-2.7232 2.75-2.7232s2.75 1.0893 2.75 2.7232v17.9732c0 3.8125-2.75 6.5357-6.05 6.5357z"/><path d="m50.6 56.6428h-13.2v-16.8839c0-3.8125 2.75-6.5358 6.6-6.5358s6.6 2.7233 6.6 6.5358z"/><path d="m24.2.544713c0-.54464325-1.1-.54464325-1.1 0l-.55.544647c-.55 1.08928-1.1 1.63392-1.65 2.17857l-1.65 1.08928c-.55 0-.55.54465 0 1.08929l1.65 1.08928c.55 0 1.1 1.08929 1.65 1.63393l.55 1.08929c0 .54464 1.1.54464 1.1 0l.55-1.08929c.55-.54464 1.1-1.63393 1.65-2.17857l1.65-.54464c.55-.54464.55-1.08929 0-1.08929l-1.65-1.08928c-.55-.54465-1.65-1.08929-1.65-2.17857z"/><path d="m68.75 9.8035c0-.54464-1.1-.54464-1.1 0l-.55.5446c0 .5447-.55 1.0893-1.1 1.634l-1.1.5446c-.55 0-.55.5447 0 1.0893l1.1 1.0893c.55.5446 1.1 1.0893 1.65 1.6339l.55.5447c0 .5446 1.1.5446 1.1 0v-.5447c.55-.5446.55-1.0893 1.65-1.6339l1.1-.5447c.55 0 .55-.5446 0-1.0892l-1.1-.5447c-.55-.5446-1.1-1.0893-1.65-1.6339z"/></g><path d="m12.65 31.5893c-.55 0-1.1 0-1.65-.5446l-9.90003-7.6251c-1.09999813-1.0892-1.649998-2.7232-.549998-3.8125 1.099998-1.0892 2.749998-1.6339 3.849998-.5446l9.90003 7.625c1.1.5446 1.65 2.7232.55 3.8125-.55.5447-1.1 1.0893-2.2 1.0893z" fill="#acedfb"/><path d="m67.1 31.5894c-.55 0-1.1 0-1.65-.5447l-19.25-16.3392c-1.1-1.0893-2.2-1.0893-3.2999 0l-19.2501 16.3392c-1.65.5447-3.85.5447-4.4-.5446-1.1-1.0893-1.1-2.7232 0-3.8125l19.25-16.3393c3.3-2.7232 7.7-2.7232 10.45 0l19.25 16.3393c1.1 1.0893 1.1 2.7232.55 3.8125-.55.5446-1.1 1.0893-1.65 1.0893z" fill="#38385e"/><path d="m75.35 31.5893c-1.1 0-1.65-.5446-2.2-1.0893-1.1-1.0893-.55-2.7232.55-3.8125l9.9-7.625c1.1-1.0893 2.75-.5446 3.85.5446 1.1 1.0893.55 2.7233-.55 3.8125l-9.9 7.6251c-.55 0-1.1.5446-1.65.5446z" fill="#acedfb"/></g></svg>